<?xml version="1.0" encoding="iso-8859-1"?>
<!-- Generator: Adobe Illustrator 19.0.0, SVG Export Plug-In . SVG Version: 6.00 Build 0)  -->
<svg version="1.1" id="Layer_1" xmlns="http://www.w3.org/2000/svg" xmlns:xlink="http://www.w3.org/1999/xlink" x="0px" y="0px"
	 viewBox="0 0 511.991 511.991" style="enable-background:new 0 0 511.991 511.991;" xml:space="preserve">
<circle style="fill:#1F84CE;" cx="255.996" cy="255.996" r="255.996"/>
<circle style="fill:#FFFFFF;" cx="255.996" cy="255.996" r="192.484"/>
<path style="opacity:0.15;fill:#145587;enable-background:new    ;" d="M310.456,277.673l37.717-37.717
	c15.037-15.038,15.037-39.418,0-54.456c-15.037-15.037-39.419-15.037-54.456,0L256,223.217l-37.717-37.717
	c-15.037-15.037-39.419-15.037-54.456,0c-15.037,15.038-15.037,39.418,0,54.456l37.717,37.717l-37.717,37.717
	c-15.037,15.038-15.037,39.418,0,54.456c7.518,7.518,17.374,11.278,27.228,11.278s19.709-3.759,27.228-11.278L256,332.129
	l37.717,37.717c7.518,7.518,17.374,11.278,27.228,11.278s19.709-3.759,27.228-11.278c15.037-15.038,15.037-39.418,0-54.456
	L310.456,277.673z"/>
<path style="fill:#FB7686;" d="M310.456,256l37.717-37.717c15.037-15.038,15.037-39.418,0-54.456
	c-15.037-15.037-39.419-15.037-54.456,0L256,201.544l-37.717-37.717c-15.037-15.037-39.419-15.037-54.456,0
	c-15.037,15.038-15.037,39.418,0,54.456L201.544,256l-37.717,37.717c-15.037,15.038-15.037,39.418,0,54.456
	c7.518,7.518,17.374,11.278,27.228,11.278s19.709-3.759,27.228-11.278L256,310.456l37.717,37.717
	c7.518,7.518,17.374,11.278,27.228,11.278s19.709-3.759,27.228-11.278c15.037-15.038,15.037-39.418,0-54.456L310.456,256z"/>
<path style="opacity:0.15;fill:#145587;enable-background:new    ;" d="M256,63.52c-106.304,0-192.479,86.175-192.479,192.479
	c0,4.717,0.178,9.393,0.512,14.026c7.185-99.753,90.382-178.453,191.969-178.453s184.782,78.7,191.968,178.453
	c0.334-4.633,0.512-9.308,0.512-14.026C448.479,149.696,362.304,63.52,256,63.52z"/>
<g>
</g>
<g>
</g>
<g>
</g>
<g>
</g>
<g>
</g>
<g>
</g>
<g>
</g>
<g>
</g>
<g>
</g>
<g>
</g>
<g>
</g>
<g>
</g>
<g>
</g>
<g>
</g>
<g>
</g>
</svg>
